<svg width="1653" height="992" xmlns="http://www.w3.org/2000/svg" xmlns:xlink="http://www.w3.org/1999/xlink" overflow="hidden"><defs><clipPath id="clip0"><rect x="1032" y="82" width="1653" height="992"/></clipPath><clipPath id="clip1"><rect x="1032" y="82" width="1650" height="990"/></clipPath><clipPath id="clip2"><rect x="1142" y="252" width="1424" height="496"/></clipPath><clipPath id="clip3"><rect x="1032" y="82" width="1650" height="990"/></clipPath><clipPath id="clip4"><rect x="1142" y="252" width="1424" height="496"/></clipPath><clipPath id="clip5"><rect x="1032" y="82" width="1650" height="990"/></clipPath><clipPath id="clip6"><rect x="1032" y="82" width="1650" height="990"/></clipPath><clipPath id="clip7"><rect x="1032" y="82" width="1650" height="990"/></clipPath><clipPath id="clip8"><rect x="1032" y="82" width="1650" height="990"/></clipPath><clipPath id="clip9"><rect x="1032" y="82" width="1650" height="990"/></clipPath><clipPath id="clip10"><rect x="1032" y="82" width="1650" height="990"/></clipPath><clipPath id="clip11"><rect x="1032" y="82" width="1650" height="990"/></clipPath><clipPath id="clip12"><rect x="1032" y="82" width="1650" height="990"/></clipPath><clipPath id="clip13"><rect x="1032" y="82" width="1650" height="990"/></clipPath><clipPath id="clip14"><rect x="1032" y="82" width="1650" height="990"/></clipPath><clipPath id="clip15"><rect x="1032" y="82" width="1650" height="990"/></clipPath><clipPath id="clip16"><rect x="1032" y="82" width="1650" height="990"/></clipPath><clipPath id="clip17"><rect x="1032" y="82" width="1650" height="990"/></clipPath><clipPath id="clip18"><rect x="1032" y="82" width="1650" height="990"/></clipPath><clipPath id="clip19"><rect x="1032" y="82" width="1650" height="990"/></clipPath><clipPath id="clip20"><rect x="1032" y="82" width="1650" height="990"/></clipPath><clipPath id="clip21"><rect x="1032" y="82" width="1650" height="990"/></clipPath><clipPath id="clip22"><rect x="1032" y="82" width="1650" height="990"/></clipPath><clipPath id="clip23"><rect x="1032" y="82" width="1650" height="990"/></clipPath><clipPath id="clip24"><rect x="1032" y="82" width="1650" height="990"/></clipPath><clipPath id="clip25"><rect x="1032" y="82" width="1650" height="990"/></clipPath><clipPath id="clip26"><rect x="1032" y="82" width="1650" height="990"/></clipPath><clipPath id="clip27"><rect x="1032" y="82" width="1650" height="990"/></clipPath><clipPath id="clip28"><rect x="1032" y="82" width="1650" height="990"/></clipPath><clipPath id="clip29"><rect x="1032" y="82" width="1650" height="990"/></clipPath><clipPath id="clip30"><rect x="1032" y="82" width="1650" height="990"/></clipPath><clipPath id="clip31"><rect x="1032" y="82" width="1650" height="990"/></clipPath><clipPath id="clip32"><rect x="1032" y="82" width="1650" height="990"/></clipPath><clipPath id="clip33"><rect x="1032" y="82" width="1650" height="990"/></clipPath><clipPath id="clip34"><rect x="1032" y="82" width="1650" height="990"/></clipPath><clipPath id="clip35"><rect x="1032" y="82" width="1650" height="990"/></clipPath><clipPath id="clip36"><rect x="1032" y="82" width="1650" height="990"/></clipPath><clipPath id="clip37"><rect x="1032" y="82" width="1650" height="990"/></clipPath><clipPath id="clip38"><rect x="1032" y="82" width="1650" height="990"/></clipPath><clipPath id="clip39"><rect x="1032" y="82" width="1650" height="990"/></clipPath><clipPath id="clip40"><rect x="1032" y="82" width="1650" height="990"/></clipPath></defs><g clip-path="url(#clip0)" transform="translate(-1032 -82)"><rect x="1033" y="82.9998" width="1650" height="989" fill="#FFFFFF"/><g clip-path="url(#clip1)"><path d="M1142.5 683.523 2562.5 683.523M1142.5 622.521 2562.5 622.521M1142.5 560.519 2562.5 560.519M1142.5 498.517 2562.5 498.517M1142.5 437.515 2562.5 437.515M1142.5 375.513 2562.5 375.513M1142.5 314.51 2562.5 314.51M1142.5 252.5 2562.5 252.5" stroke="#D9D9D9" stroke-width="3.4375" stroke-linejoin="round" stroke-miterlimit="10" fill="none"/></g><g clip-path="url(#clip2)"><path d="M1183.04 667.022 1220.04 667.022 1220.04 745 1183.04 745ZM1302.04 627.021 1339.04 627.021 1339.04 745 1302.04 745ZM1420.05 553.018 1457.05 553.018 1457.05 745 1420.05 745ZM1538.05 459.015 1575.05 459.015 1575.05 745 1538.05 745ZM1657.05 385.013 1694.06 385.013 1694.06 745 1657.05 745ZM1775.06 326.011 1812.06 326.011 1812.06 745 1775.06 745ZM1893.06 291.01 1930.06 291.01 1930.06 745 1893.06 745ZM2012.07 306.01 2049.07 306.01 2049.07 745 2012.07 745ZM2130.07 368.012 2167.07 368.012 2167.07 745 2130.07 745ZM2248.07 444.015 2285.07 444.015 2285.07 745 2248.07 745ZM2367.08 547.018 2404.08 547.018 2404.08 745 2367.08 745ZM2485.08 638.021 2522.08 638.021 2522.08 745 2485.08 745Z" fill="#4472C4"/></g><g clip-path="url(#clip3)"><path d="M1142.5 745.5 2562.5 745.5" stroke="#D9D9D9" stroke-width="3.4375" stroke-linejoin="round" stroke-miterlimit="10" fill="none" fill-rule="evenodd"/></g><g clip-path="url(#clip4)"><path d="M1202 679.022 1320.04 671.022 1439.05 570.019 1557.05 498.016 1675.05 411.013 1794.06 305 1912.06 389.013 2030.07 478.016 2149.07 511.017 2267.07 550.018 2385.08 644.021 2504 682" stroke="#ED7D31" stroke-width="10.3125" stroke-linecap="round" stroke-linejoin="round" stroke-miterlimit="10" fill="none"/></g><g clip-path="url(#clip5)"><text fill="#595959" font-family="Calibri,Calibri_MSFontService,sans-serif" font-weight="400" font-size="41" transform="matrix(1 0 0 1 2600.97 757)">0</text></g><g clip-path="url(#clip6)"><text fill="#595959" font-family="Calibri,Calibri_MSFontService,sans-serif" font-weight="400" font-size="41" transform="matrix(1 0 0 1 2600.97 702)">0.5</text></g><g clip-path="url(#clip7)"><text fill="#595959" font-family="Calibri,Calibri_MSFontService,sans-serif" font-weight="400" font-size="41" transform="matrix(1 0 0 1 2600.97 647)">1</text></g><g clip-path="url(#clip8)"><text fill="#595959" font-family="Calibri,Calibri_MSFontService,sans-serif" font-weight="400" font-size="41" transform="matrix(1 0 0 1 2600.97 593)">1.5</text></g><g clip-path="url(#clip9)"><text fill="#595959" font-family="Calibri,Calibri_MSFontService,sans-serif" font-weight="400" font-size="41" transform="matrix(1 0 0 1 2600.97 538)">2</text></g><g clip-path="url(#clip10)"><text fill="#595959" font-family="Calibri,Calibri_MSFontService,sans-serif" font-weight="400" font-size="41" transform="matrix(1 0 0 1 2600.97 483)">2.5</text></g><g clip-path="url(#clip11)"><text fill="#595959" font-family="Calibri,Calibri_MSFontService,sans-serif" font-weight="400" font-size="41" transform="matrix(1 0 0 1 2600.97 428)">3</text></g><g clip-path="url(#clip12)"><text fill="#595959" font-family="Calibri,Calibri_MSFontService,sans-serif" font-weight="400" font-size="41" transform="matrix(1 0 0 1 2600.97 374)">3.5</text></g><g clip-path="url(#clip13)"><text fill="#595959" font-family="Calibri,Calibri_MSFontService,sans-serif" font-weight="400" font-size="41" transform="matrix(1 0 0 1 2600.97 319)">4</text></g><g clip-path="url(#clip14)"><text fill="#595959" font-family="Calibri,Calibri_MSFontService,sans-serif" font-weight="400" font-size="41" transform="matrix(1 0 0 1 2600.97 264)">4.5</text></g><g clip-path="url(#clip15)"><text fill="#595959" font-family="Calibri,Calibri_MSFontService,sans-serif" font-weight="400" font-size="41" transform="matrix(1 0 0 1 1083.66 757)">0</text></g><g clip-path="url(#clip16)"><text fill="#595959" font-family="Calibri,Calibri_MSFontService,sans-serif" font-weight="400" font-size="41" transform="matrix(1 0 0 1 1062.76 695)">10</text></g><g clip-path="url(#clip17)"><text fill="#595959" font-family="Calibri,Calibri_MSFontService,sans-serif" font-weight="400" font-size="41" transform="matrix(1 0 0 1 1062.76 634)">20</text></g><g clip-path="url(#clip18)"><text fill="#595959" font-family="Calibri,Calibri_MSFontService,sans-serif" font-weight="400" font-size="41" transform="matrix(1 0 0 1 1062.76 572)">30</text></g><g clip-path="url(#clip19)"><text fill="#595959" font-family="Calibri,Calibri_MSFontService,sans-serif" font-weight="400" font-size="41" transform="matrix(1 0 0 1 1062.76 510)">40</text></g><g clip-path="url(#clip20)"><text fill="#595959" font-family="Calibri,Calibri_MSFontService,sans-serif" font-weight="400" font-size="41" transform="matrix(1 0 0 1 1062.76 449)">50</text></g><g clip-path="url(#clip21)"><text fill="#595959" font-family="Calibri,Calibri_MSFontService,sans-serif" font-weight="400" font-size="41" transform="matrix(1 0 0 1 1062.76 387)">60</text></g><g clip-path="url(#clip22)"><text fill="#595959" font-family="Calibri,Calibri_MSFontService,sans-serif" font-weight="400" font-size="41" transform="matrix(1 0 0 1 1062.76 326)">70</text></g><g clip-path="url(#clip23)"><text fill="#595959" font-family="Calibri,Calibri_MSFontService,sans-serif" font-weight="400" font-size="41" transform="matrix(1 0 0 1 1062.76 264)">80</text></g><g clip-path="url(#clip24)"><text fill="#595959" font-family="Calibri,Calibri_MSFontService,sans-serif" font-weight="400" font-size="41" transform="matrix(0.707107 -0.707107 0.707107 0.707107 1120.49 890)">January</text></g><g clip-path="url(#clip25)"><text fill="#595959" font-family="Calibri,Calibri_MSFontService,sans-serif" font-weight="400" font-size="41" transform="matrix(0.707107 -0.707107 0.707107 0.707107 1223.98 905)">February</text></g><g clip-path="url(#clip26)"><text fill="#595959" font-family="Calibri,Calibri_MSFontService,sans-serif" font-weight="400" font-size="41" transform="matrix(0.707107 -0.707107 0.707107 0.707107 1371.67 876)">March</text></g><g clip-path="url(#clip27)"><text fill="#595959" font-family="Calibri,Calibri_MSFontService,sans-serif" font-weight="400" font-size="41" transform="matrix(0.707107 -0.707107 0.707107 0.707107 1510.96 855)">April</text></g><g clip-path="url(#clip28)"><text fill="#595959" font-family="Calibri,Calibri_MSFontService,sans-serif" font-weight="400" font-size="41" transform="matrix(0.707107 -0.707107 0.707107 0.707107 1632.94 851)">May</text></g><g clip-path="url(#clip29)"><text fill="#595959" font-family="Calibri,Calibri_MSFontService,sans-serif" font-weight="400" font-size="41" transform="matrix(0.707107 -0.707107 0.707107 0.707107 1748.9 853)">June</text></g><g clip-path="url(#clip30)"><text fill="#595959" font-family="Calibri,Calibri_MSFontService,sans-serif" font-weight="400" font-size="41" transform="matrix(0.707107 -0.707107 0.707107 0.707107 1877.17 844)">July</text></g><g clip-path="url(#clip31)"><text fill="#595959" font-family="Calibri,Calibri_MSFontService,sans-serif" font-weight="400" font-size="41" transform="matrix(0.707107 -0.707107 0.707107 0.707107 1957.58 881)">August</text></g><g clip-path="url(#clip32)"><text fill="#595959" font-family="Calibri,Calibri_MSFontService,sans-serif" font-weight="400" font-size="41" transform="matrix(0.707107 -0.707107 0.707107 0.707107 2027.48 930)">September</text></g><g clip-path="url(#clip33)"><text fill="#595959" font-family="Calibri,Calibri_MSFontService,sans-serif" font-weight="400" font-size="41" transform="matrix(0.707107 -0.707107 0.707107 0.707107 2179.85 896)">October</text></g><g clip-path="url(#clip34)"><text fill="#595959" font-family="Calibri,Calibri_MSFontService,sans-serif" font-weight="400" font-size="41" transform="matrix(0.707107 -0.707107 0.707107 0.707107 2269.77 924)">November</text></g><g clip-path="url(#clip35)"><text fill="#595959" font-family="Calibri,Calibri_MSFontService,sans-serif" font-weight="400" font-size="41" transform="matrix(0.707107 -0.707107 0.707107 0.707107 2390.68 922)">December</text></g><g clip-path="url(#clip36)"><text fill="#595959" font-family="Calibri,Calibri_MSFontService,sans-serif" font-weight="400" font-size="64" transform="matrix(1 0 0 1 1525.65 178)">Whitewood Township, SD</text></g><g clip-path="url(#clip37)"><rect x="1459" y="995" width="88" height="22.9997" fill="#4472C4"/></g><g clip-path="url(#clip38)"><text fill="#595959" font-family="Calibri,Calibri_MSFontService,sans-serif" font-weight="400" font-size="41" transform="matrix(1 0 0 1 1556.66 1018)">Temperature (F°)</text></g><g clip-path="url(#clip39)"><path d="M1909 1006 1997 1006" stroke="#ED7D31" stroke-width="10.3125" stroke-linecap="round" stroke-linejoin="round" stroke-miterlimit="10" fill="none" fill-rule="evenodd"/></g><g clip-path="url(#clip40)"><text fill="#595959" font-family="Calibri,Calibri_MSFontService,sans-serif" font-weight="400" font-size="41" transform="matrix(1 0 0 1 2005.94 1018)">Rainfall (Inches)</text></g><rect x="1033.5" y="83.5" width="1650" height="989" stroke="#D9D9D9" stroke-width="3.4375" stroke-linejoin="round" stroke-miterlimit="10" fill="none"/></g></svg>